<?xml version="1.0" encoding="utf-8"?>
<!-- Generator: Adobe Illustrator 19.0.0, SVG Export Plug-In . SVG Version: 6.00 Build 0)  -->
<svg version="1.1" id="Capa_1" xmlns="http://www.w3.org/2000/svg" xmlns:xlink="http://www.w3.org/1999/xlink" x="0px" y="0px"
	 viewBox="-276 367 59 59" style="enable-background:new -276 367 59 59;" xml:space="preserve">
<style type="text/css">
	.st0{fill:#ECF0F1;}
	.st1{fill:#556080;}
</style>
<g>
	<path class="st0" d="M-261.5,414.6l9.1-3.9c0.5-0.2,0.9-1,1.2-1.6c0.3-0.5-0.1-1.1-0.7-1.1h-6.4c0,0-2.3-0.2-4.1-1
		c-1.1-0.5-1.4-1-0.8-2c1.9-2.7,5.9-9.2,6-15.9c0,0,0.2-10.3,10.3-10.3c5.9,0,8.7,3.5,10,6.4c0.7,1.6,1,3.4,1.2,5.1
		c0.4,6.4,3.7,12.2,5.2,14.6c0.5,0.8,0.3,2-0.6,2.5c-1.4,0.8-3.1,0.5-3.1,0.5h-6.5c-0.6,0-0.9,0.9-0.4,1.3c0.4,0.3,0.8,0.6,1,0.7
		l7.6,4.6c1.1,0.6,2,1.5,2.6,2.5c-4.5,3.7-10.3,5.9-16.6,5.9c-6.6,0-12.6-2.4-17.2-6.4C-263.3,415.8-262.5,415.1-261.5,414.6z"/>
	<g>
		<path class="st1" d="M-246.5,370c-14.6,0-26.5,11.9-26.5,26.5c0,8,3.6,15.2,9.2,20.1c0.6-0.8,1.4-1.5,2.3-1.9l9.1-3.9
			c0.5-0.2,0.9-1,1.2-1.6c0.3-0.5-0.1-1.1-0.7-1.1h-6.4c0,0-2.3-0.2-4.1-1c-1.1-0.5-1.4-1-0.8-2c1.9-2.7,5.9-9.2,6-15.9
			c0,0,0.2-10.3,10.3-10.3c5.9,0,8.7,3.5,10,6.4c0.7,1.6,1,3.4,1.2,5.1c0.4,6.4,3.7,12.2,5.2,14.6c0.5,0.8,0.3,2-0.6,2.5
			c-1.4,0.8-3.1,0.5-3.1,0.5h-6.5c-0.6,0-0.9,0.9-0.4,1.3c0.4,0.3,0.8,0.6,1,0.7l7.6,4.6c1.1,0.6,2,1.5,2.5,2.5c0,0,0.1,0,0.1,0.1
			c6.1-4.9,9.9-12.3,9.9-20.7C-220,381.9-231.9,370-246.5,370z"/>
	</g>
</g>
</svg>
