<?xml version="1.0" encoding="utf-8"?>
<!-- Generator: Adobe Illustrator 19.0.0, SVG Export Plug-In . SVG Version: 6.00 Build 0)  -->
<svg version="1.1" id="Layer_1" xmlns="http://www.w3.org/2000/svg" xmlns:xlink="http://www.w3.org/1999/xlink" x="0px" y="0px"
	 viewBox="-296 393 18 7" style="enable-background:new -296 393 18 7;" xml:space="preserve">
<style type="text/css">
	.st0{fill:#209E91;}
	.st1{fill:none;}
	.st2{fill:#FFFFFF;}
</style>
<path class="st0" d="M-296,393v6h5v1h4v-1h9v-6"/>
<rect x="-295" y="393.6" class="st1" width="15.8" height="4.4"/>
<g>
	<path class="st2" d="M-290.7,397.8v-2.1l-0.8,2.1h-0.5l-0.8-2.1v2.1h-1v-3.4h1.4l0.6,1.6l0.6-1.6h1.4v3.4H-290.7z"/>
	<path class="st2" d="M-287.4,397.8l-1.3-3.4h1.2l0.7,2.3l0.7-2.3h1.2l-1.3,3.4H-287.4z"/>
	<path class="st2" d="M-281.5,397.8l-1.3-1.7v1.7h-1v-3.4h1.1l1.2,1.6v-1.6h1v3.4H-281.5z"/>
</g>
</svg>
